<svg xmlns="http://www.w3.org/2000/svg" viewBox="0 0 1200 360" role="img" aria-labelledby="title desc">
  <title id="title">flAmeBornLLC LLM Academy</title>
  <desc id="desc">Flameborn mark with Aureon local organism bridge signal lines.</desc>
  <defs>
    <linearGradient id="ember" x1="0" x2="1" y1="0" y2="1">
      <stop offset="0" stop-color="#ffb13b"/>
      <stop offset="0.48" stop-color="#ff5b1a"/>
      <stop offset="1" stop-color="#22d8f5"/>
    </linearGradient>
    <radialGradient id="core" cx="50%" cy="50%" r="55%">
      <stop offset="0" stop-color="#ffe29c"/>
      <stop offset="0.35" stop-color="#ff7a1a"/>
      <stop offset="0.74" stop-color="#0c2430"/>
      <stop offset="1" stop-color="#020609"/>
    </radialGradient>
    <filter id="glow" x="-20%" y="-20%" width="140%" height="140%">
      <feGaussianBlur stdDeviation="7" result="blur"/>
      <feMerge>
        <feMergeNode in="blur"/>
        <feMergeNode in="SourceGraphic"/>
      </feMerge>
    </filter>
  </defs>
  <rect width="1200" height="360" rx="18" fill="#020609"/>
  <path d="M0 270 C160 220 260 315 420 254 C610 183 710 302 912 230 C1028 188 1120 198 1200 164 L1200 360 L0 360 Z" fill="#071923"/>
  <g opacity="0.55" stroke="#22d8f5" stroke-width="2">
    <path d="M60 292 H1140"/>
    <path d="M90 322 H1110"/>
    <path d="M680 52 C720 104 786 129 880 126 C984 122 1033 154 1104 228"/>
    <path d="M470 252 C554 206 616 145 650 70"/>
  </g>
  <g filter="url(#glow)">
    <path d="M287 298 C176 246 212 140 268 96 C267 154 320 153 327 86 C387 132 443 198 392 279 C373 309 328 317 287 298 Z" fill="url(#core)"/>
    <path d="M296 274 C261 248 272 206 299 180 C301 218 333 211 333 168 C370 204 387 242 361 273 C345 292 318 291 296 274 Z" fill="#ffe29c" opacity="0.86"/>
  </g>
  <circle cx="650" cy="70" r="10" fill="#22d8f5"/>
  <circle cx="880" cy="126" r="8" fill="#ffb13b"/>
  <circle cx="1104" cy="228" r="7" fill="#22e59b"/>
  <text x="455" y="143" font-family="Segoe UI, Trebuchet MS, sans-serif" font-size="68" font-weight="900" fill="url(#ember)" letter-spacing="0">flAmeBorn</text>
  <text x="462" y="194" font-family="Segoe UI, Trebuchet MS, sans-serif" font-size="30" font-weight="800" fill="#8aefff" letter-spacing="0">LLC / LLM ACADEMY</text>
  <text x="462" y="241" font-family="Segoe UI, Trebuchet MS, sans-serif" font-size="22" fill="#e8f7fb" letter-spacing="0">Aureon supervisor, MURGE runtime, ThoughtBus, and Mycelium unity shell</text>
</svg>
