<svg xmlns="http://www.w3.org/2000/svg" width="980" height="520" viewBox="0 0 980 520" role="img" aria-labelledby="title desc">
  <title id="title">Zenodo source map</title><desc id="desc">Verified records, conflicts, and disabled candidates.</desc>
  <defs><linearGradient id="bg" x1="0" x2="1" y1="0" y2="1"><stop offset="0" stop-color="#070b16"/><stop offset="1" stop-color="#111a31"/></linearGradient><linearGradient id="line" x1="0" x2="1"><stop offset="0" stop-color="#5be0d6"/><stop offset="1" stop-color="#ffb25f"/></linearGradient></defs>
  <rect width="980" height="520" rx="18" fill="url(#bg)"/>
  <g opacity=".18" stroke="#5be0d6"><path d="M80 120H900M80 220H900M80 320H900M80 420H900"/><path d="M180 70V460M340 70V460M500 70V460M660 70V460M820 70V460"/></g>
  <g opacity=".85" stroke="url(#line)" stroke-width="2" fill="none"><path d="M120 210C240 120 360 150 480 230S720 360 840 240"/><path d="M120 280C260 390 410 360 540 260S760 140 860 290"/></g>
  <g transform="translate(120 210)"><circle r="38" fill="#101b2f" stroke="#5be0d6" stroke-width="2"/><text y="5" text-anchor="middle" fill="#edf4ff" font-size="13" font-weight="800">GitHub</text></g><g transform="translate(240 280)"><circle r="38" fill="#101b2f" stroke="#5be0d6" stroke-width="2"/><text y="5" text-anchor="middle" fill="#edf4ff" font-size="13" font-weight="800">Zenodo</text></g><g transform="translate(360 210)"><circle r="38" fill="#101b2f" stroke="#5be0d6" stroke-width="2"/><text y="5" text-anchor="middle" fill="#edf4ff" font-size="13" font-weight="800">DOI</text></g><g transform="translate(480 280)"><circle r="38" fill="#101b2f" stroke="#5be0d6" stroke-width="2"/><text y="5" text-anchor="middle" fill="#edf4ff" font-size="13" font-weight="800">Conflict</text></g><g transform="translate(600 210)"><circle r="38" fill="#101b2f" stroke="#5be0d6" stroke-width="2"/><text y="5" text-anchor="middle" fill="#edf4ff" font-size="13" font-weight="800">Review</text></g>
  <g font-family="Inter, Arial, sans-serif"><text x="60" y="62" fill="#5be0d6" font-size="18" font-weight="900">Zenodo source map</text><text x="60" y="92" fill="#9fb2cc" font-size="14">Verified records, conflicts, and disabled candidates.</text></g>
</svg>
